<?xml version="1.0" encoding="UTF-8"?>
<svg width="130px" height="130px" viewBox="0 0 130 130" version="1.1" xmlns="http://www.w3.org/2000/svg" xmlns:xlink="http://www.w3.org/1999/xlink">
    <g id="Page-1" stroke="none" stroke-width="1" fill="none" fill-rule="evenodd">
        <g id="Artboard" transform="translate(-424.000000, -3693.000000)">
            <g id="Group-2" transform="translate(424.000000, 2891.000000)" fill="#FFFFFF" fill-rule="nonzero">
                <g id="np_explosion_1724843_000000" transform="translate(0.000000, 802.000000)">
                    <path d="M102.935154,46.3957597 L130,18.3745583 L88.7372014,34.4522968 L81.1945392,0 L66.109215,31.6961131 L41.7064846,10.1060071 L47.0307167,37.6678445 L5.76791809,37.6678445 L42.5938567,54.204947 L0,99.6819788 L53.6860068,76.254417 L44.8122867,130 L76.7576792,77.1731449 L112.696246,124.487633 L96.7235495,63.8515901 L124.675768,70.7420495 L102.935154,46.3957597 Z M87.0456928,56.867788 L78.9345802,54.8653286 L83.5655973,72.4574982 L73.1389761,58.726742 L63.8700205,74.0507562 L66.4419795,58.4610459 L50.8714403,65.2581625 L63.225256,52.0657809 L52.5421843,47.2711237 L64.514785,47.2711237 L62.9757447,39.2752509 L70.0539563,45.5339929 L74.4283454,36.3395477 L76.6190894,46.3307138 L88.5847686,41.6652297 L80.7301065,49.7974417 L87.0456928,56.867788 Z" id="Shape"></path>
                </g>
            </g>
        </g>
    </g>
</svg>