<?xml version="1.0" encoding="UTF-8" standalone="no"?>
<!DOCTYPE svg PUBLIC "-//W3C//DTD SVG 1.1//EN" "http://www.w3.org/Graphics/SVG/1.1/DTD/svg11.dtd">
<svg width="100%" height="100%" viewBox="0 0 491 133" version="1.1" xmlns="http://www.w3.org/2000/svg" xmlns:xlink="http://www.w3.org/1999/xlink" xml:space="preserve" xmlns:serif="http://www.serif.com/" style="fill-rule:evenodd;clip-rule:evenodd;stroke-linejoin:round;stroke-miterlimit:2;">
    <g transform="matrix(1,0,0,1,-336.161,-94.7128)">
        <g transform="matrix(1.53002,0,0,0.777564,39.2959,75.3089)">
            <g transform="matrix(0.653585,0,0,1.28607,177.984,-213.264)">
                <path d="M356.911,186.959L356.911,281.998L369.173,281.998L369.173,197.931L356.911,186.959Z" style="fill:white;"/>
            </g>
            <g transform="matrix(0.653585,0,0,1.37336,177.984,-229.585)">
                <rect x="378.394" y="186.959" width="53.396" height="10.972" style="fill:white;"/>
            </g>
            <g transform="matrix(0.151783,0,0,9.61218,381.34,-1753.15)">
                <rect x="378.394" y="186.959" width="53.396" height="10.972" style="fill:white;"/>
            </g>
            <g transform="matrix(0.653585,0,0,1.28607,177.984,-213.264)">
                <path d="M324.022,186.959L347.158,186.959L299.782,290.034L288.014,264.208L324.022,186.959Z" style="fill:white;"/>
            </g>
            <g transform="matrix(0.653585,0,0,1.28607,177.984,-213.264)">
                <path d="M249.821,186.959L298.689,292.45L286.517,318.157L225.953,186.959L249.821,186.959Z" style="fill:white;"/>
            </g>
            <g transform="matrix(0.653585,0,0,1.28607,177.984,-213.264)">
                <path d="M227.186,260.684L236.322,281.16L179.202,281.16L224.293,189.027L236.322,214.073L214.016,260.684L227.186,260.684Z" style="fill:white;"/>
            </g>
            <g transform="matrix(0.653585,0,0,1.28607,177.984,-213.264)">
                <path d="M107.374,248.107L119.725,248.107C101.839,300.892 24.546,289.234 24.546,232.42C24.546,188.846 90.235,161.567 117.632,213.852L103.861,213.852C76.878,179.111 38.279,205.465 36.08,231.162C32.994,267.233 87.975,288.602 107.374,248.107Z" style="fill:white;"/>
            </g>
            <g transform="matrix(0.653585,0,0,1.28607,177.984,-213.264)">
                <path d="M145.946,237.205L177.986,279.566L183.827,268.178L160.788,237.205L145.946,237.205Z" style="fill:white;"/>
            </g>
            <g transform="matrix(0.653585,0,0,1.28607,177.984,-213.264)">
                <path d="M128.586,281.16L128.586,186.959L165.163,186.959C198.449,186.959 207.034,240.499 169.734,246.281L162.39,237.253C185.902,236.007 188.963,199.195 162.39,199.195L141.193,199.195L141.193,281.16L128.586,281.16Z" style="fill:white;"/>
            </g>
            <g transform="matrix(0.653585,0,0,1.28607,177.984,-213.264)">
                <path d="M86.137,236.007L96.29,246.281L120.223,246.281C121.157,243.062 121.494,239.587 121.586,236.007L86.137,236.007Z" style="fill:white;"/>
            </g>
            <g transform="matrix(0.653585,0,0,1.28607,177.984,-213.264)">
                <path d="M499.713,190.748L514.958,186.289L482.804,247.78L476.718,235.789L499.713,190.748Z" style="fill:white;"/>
            </g>
            <g transform="matrix(-0.653585,0,0,1.28607,800.3,-213.264)">
                <path d="M499.713,190.748L514.958,186.289L482.241,248.406L482.241,281.998L470.209,281.998L470.209,248.406L499.713,190.748Z" style="fill:white;"/>
            </g>
        </g>
    </g>
</svg>
