<?xml version="1.0" encoding="UTF-8"?>
<svg width="602px" height="264px" viewBox="0 0 602 264" version="1.1" xmlns="http://www.w3.org/2000/svg" xmlns:xlink="http://www.w3.org/1999/xlink">
    <g id="Page-1" stroke="none" stroke-width="1" fill="none" fill-rule="evenodd">
        <g id="Artboard" transform="translate(-660.000000, -307.000000)">
            <g id="Group-9" transform="translate(660.000000, 307.000000)" fill="#FFFFFF">
                <polygon id="Fill-1" points="0 123 178 123 178 93 0 93"></polygon>
                <polygon id="Fill-2" points="0 178 30 178 30 137 0 137"></polygon>
                <polygon id="Fill-3" points="387 137 416.666667 137 416.666667 148.159904 565 148.159904 565 178 387 178"></polygon>
                <polygon id="Fill-4" points="386 123 416 123 416 37 386 37"></polygon>
                <polygon id="Fill-5" points="0 37 178 37 178 67.0001459 29.6959915 67.0001459 29.6959915 78 0 78"></polygon>
                <polygon id="Fill-6" points="267.117255 67.0001459 193 67.0001459 193 37 371 37 371 67.0001459 296.764157 67.0001459 296.764157 78 267.117255 78"></polygon>
                <polygon id="Fill-7" points="267 178 297 178 297 93 267 93"></polygon>
                <path d="M565,0 L568.663,27.83954 C568.8443,29.2337 569.4844,30.52833 570.476,31.52252 C571.4713,32.51671 572.7663,33.15496 574.1612,33.33848 L602,37 L574.1612,40.66189 C572.7663,40.84504 571.4713,41.48366 570.476,42.47785 C569.4844,43.47204 568.8443,44.76667 568.663,46.16083 L565,74 L561.337,46.16083 C561.1557,44.76667 560.5156,43.47204 559.524,42.47785 C558.5287,41.48366 557.2337,40.84504 555.8388,40.66189 L528,37 L555.8388,33.33848 C557.2337,33.15496 558.5287,32.51671 559.524,31.52252 C560.5156,30.52833 561.1557,29.2337 561.337,27.83954 L565,0 Z" id="Fill-8"></path>
                <path d="M12.6,264 L12.6,238.2 L6.6,238.2 L6.6,264 L12.6,264 Z M54.895455,264 L54.895455,250.05 C54.895455,249.3 54.845455,247.95 54.645455,245.95 C55.345455,246.75 56.045455,247.4 56.795455,248.05 L75.745455,264 L79.845455,264 L79.845455,238.2 L74.445455,238.2 L74.445455,251.75 C74.445455,252.55 74.545455,254.05 74.695455,256.2 C73.795455,255.15 72.795455,254.25 71.745455,253.4 L53.595455,238.2 L49.495455,238.2 L49.495455,264 L54.895455,264 Z M131.79091,264 C136.39091,264 139.89091,263.55 142.39091,262 C145.99091,259.8 148.09091,255.8 148.09091,250.95 C148.09091,242.95 142.99091,238.2 133.34091,238.2 L116.74091,238.2 L116.74091,264 L131.79091,264 Z M130.49091,259.15 L122.74091,259.15 L122.74091,242.8 L133.39091,242.8 C139.04091,242.8 141.89091,245.6 141.89091,250.85 C141.89091,257.25 138.09091,259.15 130.49091,259.15 Z M205.536365,264 C210.386365,264 211.936365,262.75 211.936365,257.9 L211.936365,238.2 L205.936365,238.2 L205.936365,259.15 L188.836365,259.15 L188.836365,238.2 L182.836365,238.2 L182.836365,257.9 C182.836365,262.75 184.386365,264 189.236365,264 L205.536365,264 Z M270.43182,264 C275.28182,264 276.88182,262.75 276.88182,257.9 L276.88182,254.35 C276.88182,249.5 275.28182,248.25 270.43182,248.25 L254.33182,248.25 L254.33182,242.7 L271.23182,242.7 L271.23182,245.65 L276.53182,244.4 L276.53182,243.85 C276.53182,239.4 274.73182,238.2 270.13182,238.2 L255.48182,238.2 C250.63182,238.2 249.08182,239.45 249.08182,244.3 L249.08182,247.15 C249.08182,252 250.63182,253.25 255.48182,253.25 L271.58182,253.25 L271.58182,259.15 L253.33182,259.15 L253.33182,256.1 L248.03182,257.2 L248.03182,257.9 C248.03182,262.75 249.63182,264 254.48182,264 L270.43182,264 Z M325.077275,264 L325.077275,242.8 L336.977275,242.8 L336.977275,238.2 L307.227275,238.2 L307.227275,242.8 L319.077275,242.8 L319.077275,264 L325.077275,264 Z M373.97273,264 L373.97273,254.25 L379.67273,254.25 L390.07273,264 L398.67273,264 L386.77273,254.25 L390.17273,254.25 C394.12273,254.25 395.97273,252.85 395.97273,249.25 L395.97273,243.2 C395.97273,239.6 394.12273,238.2 390.17273,238.2 L368.07273,238.2 L368.07273,264 L373.97273,264 Z M387.47273,249.85 L373.97273,249.85 L373.97273,242.65 L387.47273,242.65 C389.32273,242.65 390.17273,243 390.17273,244.7 L390.17273,247.8 C390.17273,249.5 389.32273,249.85 387.47273,249.85 Z M437.918185,264 L437.918185,238.2 L431.918185,238.2 L431.918185,264 L437.918185,264 Z M501.51364,264 L501.51364,259.15 L480.86364,259.15 L480.86364,252.75 L492.76364,252.75 L492.76364,248.35 L480.86364,248.35 L480.86364,242.6 L501.26364,242.6 L501.26364,238.2 L474.86364,238.2 L474.86364,264 L501.51364,264 Z M557.909095,264 C562.759095,264 564.359095,262.75 564.359095,257.9 L564.359095,254.35 C564.359095,249.5 562.759095,248.25 557.909095,248.25 L541.809095,248.25 L541.809095,242.7 L558.709095,242.7 L558.709095,245.65 L564.009095,244.4 L564.009095,243.85 C564.009095,239.4 562.209095,238.2 557.609095,238.2 L542.959095,238.2 C538.109095,238.2 536.559095,239.45 536.559095,244.3 L536.559095,247.15 C536.559095,252 538.109095,253.25 542.959095,253.25 L559.059095,253.25 L559.059095,259.15 L540.809095,259.15 L540.809095,256.1 L535.509095,257.2 L535.509095,257.9 C535.509095,262.75 537.109095,264 541.959095,264 L557.909095,264 Z" id="INDUSTRIES" fill-rule="nonzero"></path>
            </g>
        </g>
    </g>
</svg>