<?xml version="1.0" encoding="UTF-8"?>
<svg width="153px" height="141px" viewBox="0 0 153 141" version="1.1" xmlns="http://www.w3.org/2000/svg" xmlns:xlink="http://www.w3.org/1999/xlink">
    <g id="Page-1" stroke="none" stroke-width="1" fill="none" fill-rule="evenodd">
        <g id="Artboard" transform="translate(-424.000000, -3113.000000)">
            <g id="Group-2" transform="translate(424.000000, 2891.000000)" fill="#FFFFFF" fill-rule="nonzero">
                <g id="np_mining_1504744_000000" transform="translate(0.000000, 222.000000)">
                    <path d="M97.1911029,62.8189871 L97.1911029,53 L130.019956,53 L130.019956,65.6234974 L153,72.1675579 L144.089748,103.494599 L138.929902,102.089326 L138.929902,119.85722 L129.547849,119.85722 C122.047038,136.690684 98.5948868,145.103605 76.5520236,139.03057 C62.016087,135.291173 51.6960887,125.936657 47.4734234,115.653046 L32,105.834059 L47.945836,81.0510782 L47.945836,66.5578057 L69.5162866,66.5578057 L77.9547374,88.5359713 L80.7675034,96.4851832 L64.8216674,83.8616859 L60.1336222,87.1366124 C68.1062344,93.680673 76.0794582,99.7601098 83.5799636,105.840461 L84.0517493,105.37006 L87.8021549,114.724576 L94.8372804,95.0862969 C98.1218474,91.8113704 101.872406,88.5422364 104.219333,86.2021974 L117.351792,97.4264883 L122.039837,94.1515618 C115.004711,88.0719725 103.280929,78.7235542 103.280929,78.7235542 L99.5305237,82.9333683 L107.031335,62.8255876 L97.1834434,62.8255876 L97.1911029,62.8189871 Z" id="Path"></path>
                    <path d="M48.9494775,3 C66.2525546,7.23024626 80.7434243,27.9032638 83.5480105,54.2188052 C84.4827912,63.6187228 84.0183731,73.0134323 81.678388,81 C82.1487506,73.9514787 81.2080254,66.4363851 78.8741067,58.4479793 C72.3305805,39.1815718 57.3687231,24.6176505 41,19.9212914 L48.9485629,3.00612702 L48.9494775,3 Z" id="Path"></path>
                    <path d="M18,85.2086745 C5.53363754,101.085588 -7.39728555,90.3462184 5.06907691,74 L18,85.2086745 Z" id="Path"></path>
                    <polygon id="Path" points="25 76.2515281 21.7988676 80 9 69.2200297 12.2011324 65"></polygon>
                    <polygon id="Path" points="62.3932985 0 76 10.2916192 28.140575 73 15 61.7668016"></polygon>
                </g>
            </g>
        </g>
    </g>
</svg>